<svg width="192" height="20" viewBox="0 0 192 20" fill="none" xmlns="http://www.w3.org/2000/svg">
<g style="mix-blend-mode:exclusion" clip-path="url(#clip0_675_402)">
<path d="M13.2464 6.31467H12.147C12.12 5.36048 9.18684 1.40797 6.3979 1.35284C4.45149 1.3274 3.1584 2.20102 3.1584 3.79135C3.1584 5.03817 4.51007 6.07294 5.58239 6.57761C7.15934 7.31976 9.02013 8.06192 10.7413 8.72349C13.3635 9.73282 14.8008 11.5352 14.8008 14.1858C14.8008 17.659 11.7865 19.9958 8.06495 19.9958C6.15009 19.9958 4.71282 18.961 2.93763 18.961C2.28883 18.961 1.72563 19.173 1.38771 19.6522H0.337917V13.3927H1.43727C1.46431 14.4275 5.267 18.5115 8.06045 18.5115C10.1736 18.5115 11.6108 17.5021 11.6108 15.8863C11.6108 14.19 10.1465 13.4987 8.93453 13.0746C7.15934 12.4385 5.46975 11.7472 3.8072 10.8991C1.43727 9.70738 0 7.905 0 5.43681C0 2.28159 2.73488 0 6.28526 0C8.00188 0 9.24541 0.822731 10.7953 0.822731C11.3045 0.822731 11.9487 0.742154 12.2326 0.343511H13.2464V6.31043V6.31467Z" fill="white"/>
<path d="M28.426 1.64546V17.0823C28.426 17.4555 29.638 18.6726 29.9489 18.6726H31.3321V19.6522H20.9603V18.6726H22.339C22.6499 18.6726 23.8889 17.4512 23.8889 17.0823V1.64546L21.3252 1.62002C20.6223 1.59457 17.6892 6.42069 17.3513 6.95081H16.252C16.252 6.95081 16.7295 3.29092 16.7295 0H17.8019C18.311 0.292621 20.7305 0.343511 21.3793 0.343511H31.0167C31.6655 0.343511 33.8912 0.28838 34.5671 0H35.6394C35.6394 3.29092 36.117 6.95081 36.117 6.95081H35.0176C34.6797 6.42069 31.7511 1.59457 31.0437 1.62002L28.4215 1.64546H28.426Z" fill="white"/>
<path d="M56.5319 12.9177C56.5319 17.2434 53.2924 20 48.4444 20C43.993 20 39.992 16.7388 39.992 12.3876V3.02374C39.992 2.73112 38.6674 1.32739 38.4151 1.32739H37.8789V0.343506H47.1198V1.32315H46.079C45.8267 1.32315 44.5021 2.73112 44.5021 3.0195V12.7269C44.5021 15.8312 46.7008 17.8202 49.7421 17.7947C53.0086 17.7693 54.8423 15.6743 54.8423 13.0746V3.36725C54.8423 3.02374 53.2339 1.32315 52.9545 1.32315H51.8552V0.343506H58.7892V1.32315H58.3387C58.0593 1.32315 56.5364 3.0195 56.5364 3.36725V12.9135L56.5319 12.9177Z" fill="white"/>
<path d="M69.7333 19.6565H61.1953V18.6768H61.6459C62.0694 18.6768 63.1958 17.6166 63.1958 17.1374V2.86683C63.1958 2.4173 62.0108 1.32739 61.6459 1.32739H61.1953V0.343506H69.6793C74.7796 0.343506 80.2448 4.10941 80.2448 9.94487C80.2448 15.7803 75.0319 19.6522 69.7333 19.6522V19.6565ZM75.4824 7.74809C75.1716 3.13401 72.8332 1.59457 69.6207 1.59457H68.9719C68.5484 1.59457 67.7013 2.52332 67.7013 2.92196V17.0611C67.7013 17.4597 68.7151 18.3333 69.053 18.3333H69.7288C72.7746 18.3333 75.1671 16.849 75.4779 12.2349C75.5635 10.9881 75.5635 9.02459 75.4779 7.75233L75.4824 7.74809Z" fill="white"/>
<path d="M82.1462 19.6565V18.6768H82.9932C83.3897 18.6768 84.5431 17.5106 84.5431 17.0865V2.91772C84.5431 2.51908 83.3582 1.32739 82.9662 1.32739H82.1191V0.343506H91.3646V1.32315H90.549C90.1255 1.32315 88.9406 2.51908 88.9406 2.91348V17.078C88.9406 17.5021 90.0399 18.6684 90.4634 18.6684H91.2789V19.648H82.1507L82.1462 19.6565Z" fill="white"/>
<path d="M93.2871 10.0509C93.2871 4.32146 97.9369 0 103.997 0C110.057 0 114.873 4.56319 114.873 9.94487C114.873 15.6743 110.224 19.9958 104.164 19.9958C98.1036 19.9958 93.2871 15.4326 93.2871 10.0509ZM110.084 13.1001C110.336 11.3783 110.336 9.01612 110.084 7.31552C109.575 3.89313 107.349 1.45462 103.97 1.45462C100.591 1.45462 98.6442 3.4436 98.1351 6.75997C97.8828 8.48176 97.8828 10.8439 98.1351 12.5403C98.6442 15.9627 100.811 18.4012 104.195 18.4012C107.579 18.4012 109.579 16.4377 110.084 13.0958V13.1001Z" fill="white"/>
<path d="M123.543 17.1077C123.543 17.5064 124.67 18.6726 125.066 18.6726H126.476V19.6522H117.064V18.6726H117.488C117.826 18.6726 118.979 17.5318 118.979 17.1077V2.89228C118.979 2.49363 117.794 1.32739 117.429 1.32739H116.979V0.343506H125.94C130.193 0.343506 134.14 2.03986 134.14 6.17896C134.14 10.3181 130 12.307 125.575 12.307H123.548V17.1077H123.543ZM124.417 1.56488C124.079 1.56488 123.485 2.15012 123.485 2.46819V10.9033H125.598C127.598 10.9033 129.4 9.44444 129.599 7.56149C129.684 6.71331 129.684 5.97116 129.599 5.14843C129.4 3.1849 127.684 1.56912 125.877 1.56912H124.413L124.417 1.56488Z" fill="white"/>
<path d="M151.522 5.6234H150.481C150.481 5.09329 147.467 1.62001 146.985 1.62001H142.56C142.394 1.62001 142.051 1.99321 142.051 2.15012V9.12637H144.25C144.673 9.12637 146.53 7.53604 146.53 7.1374V6.65818H147.715V12.9983H146.53V12.4427C146.53 12.0187 144.669 10.4283 144.25 10.4283H142.051V17.7481C142.051 17.9092 142.389 18.3333 142.529 18.3333H146.98C148.053 18.3333 152.419 13.9313 152.419 13.3461H153.545L152.247 19.6607H135.536V18.6811H136.045C136.469 18.6811 137.541 17.5954 137.541 17.1713V2.91772C137.541 2.46819 136.356 1.32739 135.991 1.32739H135.514V0.343506H151.517V5.61916L151.522 5.6234Z" fill="white"/>
<path d="M161.992 17.1077C161.992 17.5064 163.119 18.6726 163.515 18.6726H164.925V19.6522H155.513V18.6726H155.937C156.275 18.6726 157.428 17.5318 157.428 17.1077V2.89228C157.428 2.49363 156.243 1.32739 155.878 1.32739H155.428V0.343506H164.389C168.643 0.343506 172.589 2.03986 172.589 6.17896C172.589 10.3181 168.449 12.307 164.024 12.307H161.997V17.1077H161.992ZM162.866 1.56488C162.529 1.56488 161.934 2.15012 161.934 2.46819V10.9033H164.047C166.047 10.9033 167.85 9.44444 168.048 7.56149C168.133 6.71331 168.133 5.97116 168.048 5.14843C167.85 3.1849 166.133 1.56912 164.326 1.56912H162.862L162.866 1.56488Z" fill="white"/>
<path d="M189.967 5.6234H188.926C188.926 5.09329 185.912 1.62001 185.43 1.62001H181.006C180.839 1.62001 180.497 1.99321 180.497 2.15012V9.12637H182.695C183.119 9.12637 184.975 7.53604 184.975 7.1374V6.65818H186.16V12.9983H184.975V12.4427C184.975 12.0187 183.114 10.4283 182.695 10.4283H180.497V17.7481C180.497 17.9092 180.834 18.3333 180.974 18.3333H185.426C186.498 18.3333 190.864 13.9313 190.864 13.3461H191.99L190.693 19.6607H173.982V18.6811H174.491C174.914 18.6811 175.986 17.5954 175.986 17.1713V2.91772C175.986 2.46819 174.802 1.32739 174.437 1.32739H173.959V0.343506H189.963V5.61916L189.967 5.6234Z" fill="white"/>
</g>
<defs>
<clipPath id="clip0_675_402">
<rect width="192" height="20" fill="white"/>
</clipPath>
</defs>
</svg>
